<svg width="190" height="25" viewBox="0 0 190 25" fill="none" xmlns="http://www.w3.org/2000/svg">
<path d="M0.46875 7.40625H6.40625V9.82812C7.26042 8.81771 8.11979 8.09896 8.98438 7.67188C9.85938 7.24479 10.9115 7.03125 12.1406 7.03125C13.4635 7.03125 14.5104 7.26562 15.2812 7.73438C16.0521 8.20312 16.6823 8.90104 17.1719 9.82812C18.1719 8.74479 19.0833 8.01042 19.9062 7.625C20.7292 7.22917 21.7448 7.03125 22.9531 7.03125C24.7344 7.03125 26.125 7.5625 27.125 8.625C28.125 9.67708 28.625 11.3281 28.625 13.5781V24H22.25V14.5469C22.25 13.7969 22.1042 13.2396 21.8125 12.875C21.3854 12.3021 20.8542 12.0156 20.2188 12.0156C19.4688 12.0156 18.8646 12.2865 18.4062 12.8281C17.9479 13.3698 17.7188 14.2396 17.7188 15.4375V24H11.3438V14.8594C11.3438 14.1302 11.3021 13.6354 11.2188 13.375C11.0833 12.9583 10.849 12.625 10.5156 12.375C10.1823 12.1146 9.79167 11.9844 9.34375 11.9844C8.61458 11.9844 8.01562 12.2604 7.54688 12.8125C7.07812 13.3646 6.84375 14.2708 6.84375 15.5312V24H0.46875V7.40625ZM38.2188 12.7812L32.1406 12.1406C32.3698 11.0781 32.6979 10.2448 33.125 9.64062C33.5625 9.02604 34.1875 8.49479 35 8.04688C35.5833 7.72396 36.3854 7.47396 37.4062 7.29688C38.4271 7.11979 39.5312 7.03125 40.7188 7.03125C42.625 7.03125 44.1562 7.14062 45.3125 7.35938C46.4688 7.56771 47.4323 8.01042 48.2031 8.6875C48.7448 9.15625 49.1719 9.82292 49.4844 10.6875C49.7969 11.5417 49.9531 12.3594 49.9531 13.1406V20.4688C49.9531 21.25 50 21.8646 50.0938 22.3125C50.1979 22.75 50.4167 23.3125 50.75 24H44.7812C44.5417 23.5729 44.3854 23.25 44.3125 23.0312C44.2396 22.8021 44.1667 22.4479 44.0938 21.9688C43.2604 22.7708 42.4323 23.3438 41.6094 23.6875C40.4844 24.1458 39.1771 24.375 37.6875 24.375C35.7083 24.375 34.2031 23.9167 33.1719 23C32.151 22.0833 31.6406 20.9531 31.6406 19.6094C31.6406 18.349 32.0104 17.3125 32.75 16.5C33.4896 15.6875 34.8542 15.0833 36.8438 14.6875C39.2292 14.2083 40.776 13.875 41.4844 13.6875C42.1927 13.4896 42.9427 13.2344 43.7344 12.9219C43.7344 12.1406 43.5729 11.5938 43.25 11.2812C42.9271 10.9688 42.3594 10.8125 41.5469 10.8125C40.5052 10.8125 39.724 10.9792 39.2031 11.3125C38.7969 11.5729 38.4688 12.0625 38.2188 12.7812ZM43.7344 16.125C42.8594 16.4375 41.9479 16.7135 41 16.9531C39.7083 17.2969 38.8906 17.6354 38.5469 17.9688C38.1927 18.3125 38.0156 18.7031 38.0156 19.1406C38.0156 19.6406 38.1875 20.0521 38.5312 20.375C38.8854 20.6875 39.401 20.8438 40.0781 20.8438C40.7865 20.8438 41.4427 20.6719 42.0469 20.3281C42.6615 19.9844 43.0938 19.5677 43.3438 19.0781C43.6042 18.5781 43.7344 17.9323 43.7344 17.1406V16.125ZM71.25 24H65.3125V21.3125C64.4271 22.4167 63.5312 23.2031 62.625 23.6719C61.7292 24.1406 60.625 24.375 59.3125 24.375C57.5625 24.375 56.1875 23.8542 55.1875 22.8125C54.1979 21.7604 53.7031 20.1458 53.7031 17.9688V7.40625H60.0938V16.5312C60.0938 17.5729 60.2865 18.3125 60.6719 18.75C61.0573 19.1875 61.599 19.4062 62.2969 19.4062C63.0573 19.4062 63.6771 19.1146 64.1562 18.5312C64.6458 17.9479 64.8906 16.901 64.8906 15.3906V7.40625H71.25V24ZM75.1562 7.40625H81.0938V9.82812C81.9479 8.81771 82.8073 8.09896 83.6719 7.67188C84.5469 7.24479 85.599 7.03125 86.8281 7.03125C88.151 7.03125 89.1979 7.26562 89.9688 7.73438C90.7396 8.20312 91.3698 8.90104 91.8594 9.82812C92.8594 8.74479 93.7708 8.01042 94.5938 7.625C95.4167 7.22917 96.4323 7.03125 97.6406 7.03125C99.4219 7.03125 100.812 7.5625 101.812 8.625C102.812 9.67708 103.312 11.3281 103.312 13.5781V24H96.9375V14.5469C96.9375 13.7969 96.7917 13.2396 96.5 12.875C96.0729 12.3021 95.5417 12.0156 94.9062 12.0156C94.1562 12.0156 93.5521 12.2865 93.0938 12.8281C92.6354 13.3698 92.4062 14.2396 92.4062 15.4375V24H86.0312V14.8594C86.0312 14.1302 85.9896 13.6354 85.9062 13.375C85.7708 12.9583 85.5365 12.625 85.2031 12.375C84.8698 12.1146 84.4792 11.9844 84.0312 11.9844C83.3021 11.9844 82.7031 12.2604 82.2344 12.8125C81.7656 13.3646 81.5312 14.2708 81.5312 15.5312V24H75.1562V7.40625ZM116.641 1.09375H124.438L128.5 8.14062L132.438 1.09375H140.156L133.031 12.1875L140.828 24H132.875L128.359 16.6406L123.828 24H115.922L123.828 12.0625L116.641 1.09375ZM143.219 1.09375H153.734C155.807 1.09375 157.479 1.375 158.75 1.9375C160.031 2.5 161.089 3.30729 161.922 4.35938C162.755 5.41146 163.359 6.63542 163.734 8.03125C164.109 9.42708 164.297 10.9062 164.297 12.4688C164.297 14.9167 164.016 16.8177 163.453 18.1719C162.901 19.5156 162.13 20.6458 161.141 21.5625C160.151 22.4688 159.089 23.0729 157.953 23.375C156.401 23.7917 154.995 24 153.734 24H143.219V1.09375ZM150.297 6.28125V18.7969H152.031C153.51 18.7969 154.562 18.6354 155.188 18.3125C155.812 17.9792 156.302 17.4062 156.656 16.5938C157.01 15.7708 157.188 14.4427 157.188 12.6094C157.188 10.1823 156.792 8.52083 156 7.625C155.208 6.72917 153.896 6.28125 152.062 6.28125H150.297ZM183.281 14.6406L189.484 16.5156C189.068 18.2552 188.411 19.7083 187.516 20.875C186.62 22.0417 185.505 22.9219 184.172 23.5156C182.849 24.1094 181.161 24.4062 179.109 24.4062C176.62 24.4062 174.583 24.0469 173 23.3281C171.427 22.599 170.068 21.3229 168.922 19.5C167.776 17.6771 167.203 15.3438 167.203 12.5C167.203 8.70833 168.208 5.79688 170.219 3.76562C172.24 1.72396 175.094 0.703125 178.781 0.703125C181.667 0.703125 183.932 1.28646 185.578 2.45312C187.234 3.61979 188.464 5.41146 189.266 7.82812L183.016 9.21875C182.797 8.52083 182.568 8.01042 182.328 7.6875C181.932 7.14583 181.448 6.72917 180.875 6.4375C180.302 6.14583 179.661 6 178.953 6C177.349 6 176.12 6.64583 175.266 7.9375C174.62 8.89583 174.297 10.401 174.297 12.4531C174.297 14.9948 174.682 16.7396 175.453 17.6875C176.224 18.625 177.307 19.0938 178.703 19.0938C180.057 19.0938 181.078 18.7135 181.766 17.9531C182.464 17.1927 182.969 16.0885 183.281 14.6406Z" fill="black"/>
</svg>
