<svg width="20" height="20" viewBox="0 0 20 20" fill="none" xmlns="http://www.w3.org/2000/svg">
<path d="M9.99984 11.6665C9.79382 11.6665 9.59242 11.7276 9.42112 11.8421C9.24982 11.9565 9.11631 12.1192 9.03747 12.3095C8.95863 12.4999 8.938 12.7093 8.97819 12.9114C9.01838 13.1135 9.11759 13.2991 9.26327 13.4447C9.40895 13.5904 9.59456 13.6896 9.79662 13.7298C9.99868 13.77 10.2081 13.7494 10.3985 13.6705C10.5888 13.5917 10.7515 13.4582 10.866 13.2869C10.9804 13.1156 11.0415 12.9142 11.0415 12.7082C11.0415 12.4319 10.9318 12.167 10.7364 11.9716C10.5411 11.7763 10.2761 11.6665 9.99984 11.6665ZM9.99984 10.4165C10.2209 10.4165 10.4328 10.3287 10.5891 10.1724C10.7454 10.0161 10.8332 9.80418 10.8332 9.58317V7.08317C10.8332 6.86216 10.7454 6.6502 10.5891 6.49392C10.4328 6.33764 10.2209 6.24984 9.99984 6.24984C9.77883 6.24984 9.56687 6.33764 9.41059 6.49392C9.25431 6.6502 9.16651 6.86216 9.16651 7.08317V9.58317C9.16651 9.80418 9.25431 10.0161 9.41059 10.1724C9.56687 10.3287 9.77883 10.4165 9.99984 10.4165ZM9.99984 1.6665C8.35166 1.6665 6.7405 2.15525 5.37009 3.07092C3.99968 3.9866 2.93158 5.28809 2.30084 6.81081C1.67011 8.33353 1.50509 10.0091 1.82663 11.6256C2.14817 13.2421 2.94185 14.727 4.10728 15.8924C5.27272 17.0578 6.75758 17.8515 8.37409 18.173C9.9906 18.4946 11.6662 18.3296 13.1889 17.6988C14.7116 17.0681 16.0131 16 16.9288 14.6296C17.8444 13.2592 18.3332 11.648 18.3332 9.99984C18.3307 7.79045 17.452 5.67227 15.8897 4.10999C14.3274 2.54772 12.2092 1.66896 9.99984 1.6665ZM9.99984 16.6665C8.6813 16.6665 7.39237 16.2755 6.29604 15.543C5.19971 14.8104 4.34523 13.7692 3.84064 12.5511C3.33606 11.3329 3.20404 9.99244 3.46127 8.69924C3.71851 7.40603 4.35345 6.21814 5.2858 5.28579C6.21815 4.35344 7.40603 3.7185 8.69924 3.46127C9.99245 3.20403 11.3329 3.33606 12.5511 3.84064C13.7692 4.34522 14.8104 5.19971 15.543 6.29604C16.2755 7.39236 16.6665 8.6813 16.6665 9.99984C16.6645 11.7673 15.9615 13.4618 14.7117 14.7116C13.4618 15.9615 11.7673 16.6645 9.99984 16.6665Z" fill="#ED1849"/>
</svg>
