<svg width="40" height="40" viewBox="0 0 40 40" fill="none" xmlns="http://www.w3.org/2000/svg">
<path d="M20.0007 3.3335C16.7043 3.3335 13.482 4.31098 10.7412 6.14234C8.00034 7.97369 5.86413 10.5767 4.60267 13.6221C3.34121 16.6675 3.01115 20.0187 3.65424 23.2517C4.29732 26.4847 5.88467 29.4544 8.21555 31.7853C10.5464 34.1162 13.5161 35.7035 16.7492 36.3466C19.9822 36.9897 23.3333 36.6596 26.3787 35.3982C29.4242 34.1367 32.0271 32.0005 33.8585 29.2597C35.6898 26.5188 36.6673 23.2965 36.6673 20.0002C36.6624 15.5814 34.9049 11.345 31.7803 8.22048C28.6558 5.09594 24.4194 3.33841 20.0007 3.3335V3.3335ZM20.0007 33.3335C17.3636 33.3335 14.7857 32.5515 12.5931 31.0864C10.4004 29.6213 8.69143 27.539 7.68227 25.1026C6.6731 22.6663 6.40905 19.9854 6.92352 17.399C7.43799 14.8125 8.70787 12.4368 10.5726 10.5721C12.4373 8.70737 14.813 7.4375 17.3995 6.92303C19.9859 6.40856 22.6668 6.6726 25.1031 7.68177C27.5395 8.69094 29.6218 10.3999 31.0869 12.5926C32.552 14.7852 33.334 17.3631 33.334 20.0002C33.3299 23.5351 31.9239 26.9242 29.4243 29.4238C26.9247 31.9234 23.5356 33.3295 20.0007 33.3335V33.3335ZM20.0007 19.1668C19.5586 19.1668 19.1347 19.3424 18.8221 19.655C18.5096 19.9675 18.334 20.3915 18.334 20.8335V25.8335C18.334 26.2755 18.5096 26.6994 18.8221 27.012C19.1347 27.3246 19.5586 27.5002 20.0007 27.5002C20.4427 27.5002 20.8666 27.3246 21.1792 27.012C21.4917 26.6994 21.6673 26.2755 21.6673 25.8335V20.8335C21.6673 20.3915 21.4917 19.9675 21.1792 19.655C20.8666 19.3424 20.4427 19.1668 20.0007 19.1668ZM20.0007 12.5002C19.5886 12.5002 19.1858 12.6223 18.8432 12.8513C18.5006 13.0802 18.2336 13.4056 18.0759 13.7862C17.9182 14.1669 17.877 14.5858 17.9574 14.9899C18.0377 15.3941 18.2362 15.7653 18.5275 16.0566C18.8189 16.348 19.1901 16.5464 19.5942 16.6268C19.9983 16.7072 20.4172 16.6659 20.7979 16.5082C21.1786 16.3506 21.504 16.0835 21.7329 15.7409C21.9618 15.3983 22.084 14.9955 22.084 14.5835C22.084 14.031 21.8645 13.5011 21.4738 13.1104C21.0831 12.7197 20.5532 12.5002 20.0007 12.5002V12.5002Z" fill="url(#paint0_linear_1003_4321)"/>
<defs>
<linearGradient id="paint0_linear_1003_4321" x1="5.3593" y1="19.9999" x2="47.1315" y2="19.9999" gradientUnits="userSpaceOnUse">
<stop stop-color="#993D83"/>
<stop offset="1" stop-color="#38132D"/>
</linearGradient>
</defs>
</svg>
