<svg width="18" height="18" viewBox="0 0 18 18" fill="none" xmlns="http://www.w3.org/2000/svg">
<path d="M13.5 1.5H4.5C4.30109 1.5 4.11032 1.57902 3.96967 1.71967C3.82902 1.86032 3.75 2.05109 3.75 2.25V15.75C3.74999 15.8934 3.79108 16.0337 3.86839 16.1545C3.9457 16.2752 4.05601 16.3713 4.18623 16.4313C4.31645 16.4912 4.46114 16.5126 4.60315 16.4929C4.74516 16.4732 4.87855 16.4132 4.9875 16.32L9 12.9525L12.9675 16.2825C13.0376 16.352 13.1207 16.407 13.2121 16.4443C13.3034 16.4817 13.4013 16.5006 13.5 16.5C13.5984 16.5025 13.696 16.482 13.785 16.44C13.922 16.3837 14.0392 16.2882 14.122 16.1654C14.2047 16.0426 14.2493 15.8981 14.25 15.75V2.25C14.25 2.05109 14.171 1.86032 14.0303 1.71967C13.8897 1.57902 13.6989 1.5 13.5 1.5Z" fill="#991f7b"/>
</svg>
