<svg width="20" height="20" viewBox="0 0 20 20" fill="none" xmlns="http://www.w3.org/2000/svg">
<path d="M18.0915 16.9082L3.0915 1.90816C2.93458 1.75124 2.72175 1.66309 2.49983 1.66309C2.27791 1.66309 2.06508 1.75124 1.90816 1.90816C1.75124 2.06508 1.66309 2.27791 1.66309 2.49983C1.66309 2.72175 1.75124 2.93458 1.90816 3.0915L3.33316 4.50816V15.8332C3.33316 16.4962 3.59655 17.1321 4.0654 17.6009C4.53424 18.0698 5.17012 18.3332 5.83316 18.3332H14.1665C14.5532 18.3319 14.9343 18.2409 15.2799 18.0674C15.6255 17.8939 15.9261 17.6425 16.1582 17.3332L16.9082 18.0915C16.9856 18.1696 17.0778 18.2316 17.1793 18.2739C17.2809 18.3162 17.3898 18.338 17.4998 18.338C17.6098 18.338 17.7188 18.3162 17.8203 18.2739C17.9219 18.2316 18.014 18.1696 18.0915 18.0915C18.1696 18.014 18.2316 17.9219 18.2739 17.8203C18.3162 17.7188 18.338 17.6098 18.338 17.4998C18.338 17.3898 18.3162 17.2809 18.2739 17.1793C18.2316 17.0778 18.1696 16.9856 18.0915 16.9082ZM14.1665 16.6665H5.83316C5.61215 16.6665 5.40019 16.5787 5.24391 16.4224C5.08763 16.2661 4.99983 16.0542 4.99983 15.8332V6.17483L14.9415 16.1165C14.8838 16.2762 14.7786 16.4145 14.6401 16.5128C14.5016 16.6111 14.3363 16.6647 14.1665 16.6665ZM7.2165 3.33316H9.99983V5.83316C9.99983 6.4962 10.2632 7.13209 10.7321 7.60093C11.2009 8.06977 11.8368 8.33316 12.4998 8.33316H14.9998V11.1165C14.9998 11.3375 15.0876 11.5495 15.2439 11.7058C15.4002 11.862 15.6121 11.9498 15.8332 11.9498C16.0542 11.9498 16.2661 11.862 16.4224 11.7058C16.5787 11.5495 16.6665 11.3375 16.6665 11.1165V7.49983C16.6665 7.49983 16.6665 7.49983 16.6665 7.44983C16.6578 7.37327 16.6411 7.29785 16.6165 7.22483V7.14983C16.5764 7.06415 16.523 6.98538 16.4582 6.9165L11.4582 1.9165C11.3893 1.85168 11.3105 1.79823 11.2248 1.75816H11.1498L10.8832 1.6665H7.2165C6.99548 1.6665 6.78352 1.75429 6.62724 1.91057C6.47096 2.06685 6.38316 2.27882 6.38316 2.49983C6.38316 2.72084 6.47096 2.9328 6.62724 3.08908C6.78352 3.24536 6.99548 3.33316 7.2165 3.33316ZM11.6665 4.50816L13.8248 6.6665H12.4998C12.2788 6.6665 12.0669 6.5787 11.9106 6.42242C11.7543 6.26614 11.6665 6.05418 11.6665 5.83316V4.50816Z" fill="#767676"/>
</svg>
