<svg width="22" height="22" viewBox="0 0 22 22" fill="none" xmlns="http://www.w3.org/2000/svg">
<path d="M14.4014 11.6507C15.3001 10.9436 15.9561 9.97401 16.2781 8.87678C16.6001 7.77955 16.572 6.60924 16.1979 5.52867C15.8238 4.44811 15.1222 3.51102 14.1907 2.84778C13.2592 2.18454 12.1441 1.82813 11.0006 1.82812C9.85711 1.82812 8.74204 2.18454 7.81054 2.84778C6.87904 3.51102 6.17742 4.44811 5.8033 5.52867C5.42918 6.60924 5.40116 7.77955 5.72314 8.87678C6.04512 9.97401 6.70108 10.9436 7.59977 11.6507C6.05984 12.2676 4.7162 13.2909 3.71209 14.6114C2.70798 15.9319 2.08104 17.5002 1.89811 19.149C1.88487 19.2694 1.89546 19.3912 1.9293 19.5075C1.96313 19.6237 2.01954 19.7322 2.09529 19.8267C2.24829 20.0175 2.47083 20.1398 2.71394 20.1665C2.95706 20.1932 3.20084 20.1223 3.39166 19.9693C3.58247 19.8163 3.7047 19.5938 3.73144 19.3507C3.93273 17.5588 4.78715 15.9038 6.13147 14.7021C7.4758 13.5003 9.21576 12.8359 11.0189 12.8359C12.8221 12.8359 14.5621 13.5003 15.9064 14.7021C17.2507 15.9038 18.1052 17.5588 18.3064 19.3507C18.3314 19.5759 18.4388 19.7839 18.6081 19.9346C18.7774 20.0853 18.9965 20.1679 19.2231 20.1665H19.3239C19.5642 20.1388 19.7839 20.0173 19.935 19.8285C20.0861 19.6396 20.1564 19.3987 20.1306 19.1582C19.9468 17.5047 19.3165 15.9324 18.3072 14.6098C17.2979 13.2873 15.9478 12.2644 14.4014 11.6507ZM11.0006 10.9998C10.2754 10.9998 9.5665 10.7848 8.96352 10.3819C8.36054 9.97899 7.89057 9.40633 7.61305 8.73634C7.33553 8.06634 7.26292 7.3291 7.40439 6.61783C7.54587 5.90657 7.89509 5.25323 8.40788 4.74044C8.92067 4.22765 9.57401 3.87843 10.2853 3.73695C10.9965 3.59547 11.7338 3.66808 12.4038 3.9456C13.0738 4.22313 13.6464 4.69309 14.0493 5.29607C14.4522 5.89905 14.6673 6.60796 14.6673 7.33316C14.6673 8.30562 14.281 9.23826 13.5933 9.92589C12.9057 10.6135 11.9731 10.9998 11.0006 10.9998Z" fill="#4646EB"/>
</svg>
