<svg width="22" height="22" viewBox="0 0 22 22" fill="none" xmlns="http://www.w3.org/2000/svg">
<path d="M11.5415 11.9164L9.43315 14.0156C9.34723 14.1008 9.27904 14.2022 9.2325 14.3139C9.18596 14.4256 9.162 14.5454 9.162 14.6664C9.162 14.7874 9.18596 14.9073 9.2325 15.019C9.27904 15.1307 9.34723 15.232 9.43315 15.3173C9.51837 15.4032 9.61975 15.4714 9.73145 15.5179C9.84316 15.5645 9.96297 15.5884 10.084 15.5884C10.205 15.5884 10.3248 15.5645 10.4365 15.5179C10.5482 15.4714 10.6496 15.4032 10.7348 15.3173L14.4015 11.6506C14.4849 11.5634 14.5504 11.4606 14.594 11.3481C14.6857 11.1249 14.6857 10.8746 14.594 10.6514C14.5504 10.5389 14.4849 10.4361 14.4015 10.3489L10.7348 6.68227C10.6493 6.5968 10.5479 6.529 10.4362 6.48274C10.3245 6.43649 10.2049 6.41268 10.084 6.41268C9.96311 6.41268 9.84342 6.43649 9.73175 6.48274C9.62008 6.529 9.51862 6.5968 9.43315 6.68227C9.34768 6.76773 9.27988 6.8692 9.23363 6.98087C9.18737 7.09254 9.16357 7.21223 9.16357 7.3331C9.16357 7.45397 9.18737 7.57366 9.23363 7.68533C9.27988 7.797 9.34768 7.89846 9.43315 7.98393L11.5415 10.0831H2.75065C2.50754 10.0831 2.27438 10.1797 2.10247 10.3516C1.93056 10.5235 1.83398 10.7567 1.83398 10.9998C1.83398 11.2429 1.93056 11.476 2.10247 11.6479C2.27438 11.8199 2.50754 11.9164 2.75065 11.9164H11.5415ZM11.0007 1.8331C9.28748 1.82545 7.60646 2.29804 6.14825 3.19727C4.69003 4.09651 3.513 5.38638 2.75065 6.9206C2.64125 7.1394 2.62325 7.3927 2.70061 7.62478C2.77797 7.85686 2.94435 8.0487 3.16315 8.1581C3.38195 8.2675 3.63526 8.2855 3.86733 8.20814C4.09941 8.13079 4.29125 7.9644 4.40065 7.7456C4.98016 6.57531 5.86166 5.581 6.95407 4.86542C8.04648 4.14984 9.31015 3.73896 10.6145 3.67523C11.9189 3.61149 13.2166 3.89723 14.3735 4.5029C15.5305 5.10857 16.5047 6.01221 17.1956 7.12043C17.8864 8.22865 18.2688 9.50124 18.3032 10.8067C18.3376 12.1122 18.0227 13.4031 17.3912 14.5462C16.7597 15.6892 15.8344 16.6429 14.7109 17.3087C13.5874 17.9744 12.3066 18.3281 11.0007 18.3331C9.63379 18.339 8.29296 17.9594 7.13203 17.2379C5.97111 16.5164 5.03714 15.4822 4.43732 14.2539C4.32792 14.0351 4.13608 13.8687 3.904 13.7914C3.67192 13.714 3.41862 13.732 3.19982 13.8414C2.98101 13.9508 2.81463 14.1427 2.73727 14.3748C2.65991 14.6068 2.67792 14.8601 2.78732 15.0789C3.51408 16.5415 4.61838 17.7833 5.986 18.676C7.35362 19.5686 8.93489 20.0797 10.5663 20.1563C12.1976 20.233 13.8198 19.8724 15.2651 19.1118C16.7104 18.3513 17.9262 17.2184 18.7869 15.8304C19.6475 14.4424 20.1217 12.8497 20.1604 11.217C20.1991 9.58431 19.8009 7.97091 19.007 6.54369C18.2131 5.11648 17.0523 3.92729 15.6447 3.09911C14.2371 2.27094 12.6338 1.83387 11.0007 1.8331V1.8331Z" fill="#4646EB"/>
</svg>
