<svg width="40" height="40" viewBox="0 0 40 40" fill="none" xmlns="http://www.w3.org/2000/svg">
<path d="M8.50016 26.6663C8.00016 25.833 7.00016 25.6663 6.16683 25.9997C5.3335 26.4997 5.16683 27.4997 5.50016 28.333C6.00016 29.1663 7.00016 29.333 7.8335 28.9997C8.66683 28.4997 8.8335 27.4997 8.50016 26.6663ZM7.8335 10.9997C7.00016 10.6663 6.00016 10.833 5.50016 11.6663C5.16683 12.4997 5.3335 13.4997 6.16683 13.9997C7.00016 14.333 8.00016 14.1663 8.50016 13.333C8.8335 12.4997 8.66683 11.4997 7.8335 10.9997ZM33.8335 13.9997C34.6668 13.4997 34.8335 12.4997 34.5002 11.6663C34.0002 10.833 33.0002 10.6663 32.1668 10.9997C31.3335 11.4997 31.1668 12.4997 31.5002 13.333C32.0002 14.1663 33.0002 14.333 33.8335 13.9997ZM6.66683 19.9997C6.66683 18.9997 6.00016 18.333 5.00016 18.333C4.00016 18.333 3.3335 18.9997 3.3335 19.9997C3.3335 20.9997 4.00016 21.6663 5.00016 21.6663C6.00016 21.6663 6.66683 20.9997 6.66683 19.9997ZM12.0002 31.333C11.1668 31.4997 10.5002 32.4997 10.8335 33.333C11.0002 34.1663 12.0002 34.833 12.8335 34.4997C13.6668 34.333 14.3335 33.333 14.0002 32.4997C13.8335 31.6663 13.0002 31.1663 12.0002 31.333ZM35.0002 18.333C34.0002 18.333 33.3335 18.9997 33.3335 19.9997C33.3335 20.9997 34.0002 21.6663 35.0002 21.6663C36.0002 21.6663 36.6668 20.9997 36.6668 19.9997C36.6668 18.9997 36.0002 18.333 35.0002 18.333ZM33.8335 25.9997C33.0002 25.4997 32.0002 25.833 31.5002 26.6663C31.0002 27.4997 31.3335 28.4997 32.1668 28.9997C33.0002 29.4997 34.0002 29.1663 34.5002 28.333C34.8335 27.4997 34.6668 26.4997 33.8335 25.9997ZM28.3335 5.49967C27.5002 4.99967 26.5002 5.33301 26.0002 6.16634C25.5002 6.99967 25.8335 7.99967 26.6668 8.49967C27.5002 8.99967 28.5002 8.66634 29.0002 7.83301C29.3335 6.99967 29.1668 5.99967 28.3335 5.49967ZM28.0002 31.333C27.1668 31.1663 26.1668 31.6663 26.0002 32.4997C25.8335 33.333 26.3335 34.333 27.1668 34.4997C28.0002 34.6663 29.0002 34.1663 29.1668 33.333C29.3335 32.4997 28.8335 31.6663 28.0002 31.333ZM20.0002 33.333C19.0002 33.333 18.3335 33.9997 18.3335 34.9997C18.3335 35.9997 19.0002 36.6663 20.0002 36.6663C21.0002 36.6663 21.6668 35.9997 21.6668 34.9997C21.6668 33.9997 21.0002 33.333 20.0002 33.333ZM20.0002 3.33301C19.0002 3.33301 18.3335 3.99967 18.3335 4.99967C18.3335 5.99967 19.0002 6.66634 20.0002 6.66634C21.0002 6.66634 21.6668 5.99967 21.6668 4.99967C21.6668 3.99967 21.0002 3.33301 20.0002 3.33301Z" fill="url(#paint0_linear_899_9482)"/>
<defs>
<linearGradient id="paint0_linear_899_9482" x1="5.35881" y1="19.9994" x2="47.131" y2="19.9994" gradientUnits="userSpaceOnUse">
<stop stop-color="#1085D4"/>
<stop offset="1" stop-color="#91C8F2"/>
</linearGradient>
</defs>
</svg>
