<svg width="20" height="20" viewBox="0 0 20 20" fill="none" xmlns="http://www.w3.org/2000/svg">
<path d="M9.99984 2.5C8.90549 2.5 7.82186 2.71555 6.81081 3.13434C5.79976 3.55313 4.8811 4.16696 4.10728 4.94078C2.54448 6.50358 1.6665 8.6232 1.6665 10.8333V16.6667C1.6665 16.8877 1.7543 17.0996 1.91058 17.2559C2.06686 17.4122 2.27882 17.5 2.49984 17.5H4.99984C5.66288 17.5 6.29876 17.2366 6.7676 16.7678C7.23645 16.2989 7.49984 15.663 7.49984 15V13.3333C7.49984 12.6703 7.23645 12.0344 6.7676 11.5656C6.29876 11.0967 5.66288 10.8333 4.99984 10.8333H3.33317C3.33317 9.06522 4.03555 7.36953 5.28579 6.11929C6.53604 4.86905 8.23173 4.16667 9.99984 4.16667C11.7679 4.16667 13.4636 4.86905 14.7139 6.11929C15.9641 7.36953 16.6665 9.06522 16.6665 10.8333H14.9998C14.3368 10.8333 13.7009 11.0967 13.2321 11.5656C12.7632 12.0344 12.4998 12.6703 12.4998 13.3333V15C12.4998 15.663 12.7632 16.2989 13.2321 16.7678C13.7009 17.2366 14.3368 17.5 14.9998 17.5H17.4998C17.7209 17.5 17.9328 17.4122 18.0891 17.2559C18.2454 17.0996 18.3332 16.8877 18.3332 16.6667V10.8333C18.3332 8.6232 17.4552 6.50358 15.8924 4.94078C14.3296 3.37797 12.21 2.5 9.99984 2.5ZM4.99984 12.5C5.22085 12.5 5.43281 12.5878 5.58909 12.7441C5.74537 12.9004 5.83317 13.1123 5.83317 13.3333V15C5.83317 15.221 5.74537 15.433 5.58909 15.5893C5.43281 15.7455 5.22085 15.8333 4.99984 15.8333H3.33317V12.5H4.99984ZM16.6665 15.8333H14.9998C14.7788 15.8333 14.5669 15.7455 14.4106 15.5893C14.2543 15.433 14.1665 15.221 14.1665 15V13.3333C14.1665 13.1123 14.2543 12.9004 14.4106 12.7441C14.5669 12.5878 14.7788 12.5 14.9998 12.5H16.6665V15.8333Z" fill="#ED1849"/>
</svg>
