<svg width="186" height="18" viewBox="0 0 186 18" fill="none" xmlns="http://www.w3.org/2000/svg">
<rect x="28" width="18" height="18" rx="3" fill="#0054A6"/>
<path d="M36.2448 4.12H33.8088V13H36.3408C38.9568 13 40.6368 11.5 40.6368 8.524C40.6368 5.512 38.9568 4.12 36.2448 4.12ZM36.1368 11.572H35.5848V5.536H36.1368C37.8048 5.536 38.8248 6.352 38.8248 8.524C38.8248 10.684 37.8048 11.572 36.1368 11.572Z" fill="white"/>
<rect width="18" height="18" rx="3" fill="#58595B"/>
<path d="M11.8486 4.12H6.40059V13H11.9806V11.512H8.17659V9.136H11.2966V7.648H8.17659V5.596H11.8486V4.12Z" fill="white"/>
<rect x="56" width="18" height="18" rx="3" fill="#50BEE8"/>
<path d="M63.327 4.12H61.551V13H63.327V9.16H66.687V13H68.451V4.12H66.687V7.612H63.327V4.12Z" fill="white"/>
<rect x="84" width="18" height="18" rx="3" fill="#EF0A0A"/>
<path d="M93.006 4.12H90.09V13H91.866V9.844H93.054C93.534 9.844 93.982 9.788 94.398 9.676C94.814 9.556 95.174 9.376 95.478 9.136C95.79 8.896 96.034 8.592 96.21 8.224C96.394 7.848 96.486 7.408 96.486 6.904C96.486 6.376 96.394 5.936 96.21 5.584C96.034 5.224 95.79 4.936 95.478 4.72C95.166 4.504 94.798 4.352 94.374 4.264C93.95 4.168 93.494 4.12 93.006 4.12ZM92.934 8.44H91.866V5.524H92.874C93.49 5.524 93.954 5.624 94.266 5.824C94.586 6.024 94.746 6.384 94.746 6.904C94.746 7.928 94.142 8.44 92.934 8.44Z" fill="white"/>
<rect x="112" width="18" height="18" rx="3" fill="#FF4300"/>
<path d="M121.006 4.12H118.09V13H119.866V9.844H121.054C121.534 9.844 121.982 9.788 122.398 9.676C122.814 9.556 123.174 9.376 123.478 9.136C123.79 8.896 124.034 8.592 124.21 8.224C124.394 7.848 124.486 7.408 124.486 6.904C124.486 6.376 124.394 5.936 124.21 5.584C124.034 5.224 123.79 4.936 123.478 4.72C123.166 4.504 122.798 4.352 122.374 4.264C121.95 4.168 121.494 4.12 121.006 4.12ZM120.934 8.44H119.866V5.524H120.874C121.49 5.524 121.954 5.624 122.266 5.824C122.586 6.024 122.746 6.384 122.746 6.904C122.746 7.928 122.142 8.44 120.934 8.44Z" fill="white"/>
<rect x="140" width="18" height="18" rx="3" fill="#3D845D"/>
<path d="M145.562 4.12L147.902 8.416L145.406 13H147.29L148.238 11.032C148.466 10.564 148.658 10.108 148.886 9.568H148.934C149.21 10.108 149.402 10.564 149.63 11.032L150.626 13H152.594L150.098 8.5L152.438 4.12H150.566L149.726 5.944C149.534 6.364 149.366 6.784 149.138 7.348H149.078C148.802 6.784 148.622 6.364 148.418 5.944L147.53 4.12H145.562Z" fill="white"/>
<rect x="168" width="18" height="18" rx="3" fill="#63BA44"/>
<path d="M177.976 5.596L173.836 11.932V13H180.196V11.512H176.02L180.148 5.176V4.12H174.232V5.596H177.976Z" fill="white"/>
</svg>
