<?xml version="1.0" encoding="utf-8"?>
<!-- Generator: Adobe Illustrator 26.5.0, SVG Export Plug-In . SVG Version: 6.00 Build 0)  -->
<svg version="1.1" id="Layer_1" xmlns="http://www.w3.org/2000/svg" xmlns:xlink="http://www.w3.org/1999/xlink" x="0px" y="0px"
	 viewBox="0 0 28 24" style="enable-background:new 0 0 28 24;" xml:space="preserve">
<style type="text/css">
	.st0{fill:#5771AD;}
</style>
<path class="st0" d="M24.5,20.9l-5.6-5.6c1.3-1.9,1.9-4.3,1.6-6.8c-0.6-4.3-4.1-7.8-8.4-8.3C5.6-0.6,0.3,4.8,1.1,11.1
	c0.5,4.3,4,7.8,8.3,8.4c2.5,0.3,4.9-0.3,6.8-1.6l5.6,5.6c0.7,0.7,1.9,0.7,2.7,0C25.2,22.8,25.2,21.7,24.5,20.9z M14.5,11h-2.7v2.6
	c0,0.6-0.5,1.1-1.1,1.1c-0.6,0-1.1-0.5-1.1-1.1V11H7c-0.6,0-1.1-0.5-1.1-1.1c0-0.6,0.5-1.1,1.1-1.1h2.7V6.1c0-0.6,0.5-1.1,1.1-1.1
	s1.1,0.5,1.1,1.1v2.6h2.6c0.7,0,1.2,0.5,1.2,1.1C15.6,10.5,15.1,11,14.5,11z"/>
</svg>
