<svg width="24" height="24" viewBox="0 0 24 24" fill="none" xmlns="http://www.w3.org/2000/svg">
<g clip-path="url(#clip0_298_7184)">
<path d="M23.5728 10.7457C23.4774 10.5232 23.2571 10.3688 22.9982 10.3688H12.419C12.0738 10.3688 11.7945 10.6481 11.7945 10.9931V13.9898C11.7945 14.3349 12.0738 14.6142 12.419 14.6142H19.3734V17.2363C11.5469 20.5122 4.62209 17.0115 4.62209 17.0115V6.4731C4.62209 6.4731 12.2646 2.60916 20.5657 6.79774C20.8269 6.92942 21.1449 6.87947 21.3447 6.6638L23.3752 4.48892C23.6091 4.23692 23.6091 3.84871 23.3752 3.59672C22.4735 2.64095 19.6414 0.622711 11.7967 0.622711C2.65299 0.624981 0.375 4.31865 0.375 4.31865V19.2182H0.404525C0.697507 19.6654 3.24576 23.1411 11.7967 23.3636C20.6997 23.5952 23.4115 20.2375 23.625 19.7403V10.7434H23.5728V10.7457Z" fill="white"/>
</g>
<defs>
<clipPath id="clip0_298_7184">
<rect width="23.25" height="22.75" fill="white" transform="translate(0.375 0.625)"/>
</clipPath>
</defs>
</svg>
