<svg width="110" height="15" viewBox="0 0 110 15" fill="none" xmlns="http://www.w3.org/2000/svg">
<path d="M0.107422 4.66602H3.44727V6.02832C3.92773 5.45996 4.41113 5.05566 4.89746 4.81543C5.38965 4.5752 5.98145 4.45508 6.67285 4.45508C7.41699 4.45508 8.00586 4.58691 8.43945 4.85059C8.87305 5.11426 9.22754 5.50684 9.50293 6.02832C10.0654 5.41895 10.5781 5.00586 11.041 4.78906C11.5039 4.56641 12.0752 4.45508 12.7549 4.45508C13.7568 4.45508 14.5391 4.75391 15.1016 5.35156C15.6641 5.94336 15.9453 6.87207 15.9453 8.1377V14H12.3594V8.68262C12.3594 8.26074 12.2773 7.94727 12.1133 7.74219C11.873 7.41992 11.5742 7.25879 11.2168 7.25879C10.7949 7.25879 10.4551 7.41113 10.1973 7.71582C9.93945 8.02051 9.81055 8.50977 9.81055 9.18359V14H6.22461V8.8584C6.22461 8.44824 6.20117 8.16992 6.1543 8.02344C6.07812 7.78906 5.94629 7.60156 5.75879 7.46094C5.57129 7.31445 5.35156 7.24121 5.09961 7.24121C4.68945 7.24121 4.35254 7.39648 4.08887 7.70703C3.8252 8.01758 3.69336 8.52734 3.69336 9.23633V14H0.107422V4.66602ZM21.3418 7.68945L17.9229 7.3291C18.0518 6.73145 18.2363 6.2627 18.4766 5.92285C18.7227 5.57715 19.0742 5.27832 19.5312 5.02637C19.8594 4.84473 20.3105 4.7041 20.8848 4.60449C21.459 4.50488 22.0801 4.45508 22.748 4.45508C23.8203 4.45508 24.6816 4.5166 25.332 4.63965C25.9824 4.75684 26.5244 5.00586 26.958 5.38672C27.2627 5.65039 27.5029 6.02539 27.6787 6.51172C27.8545 6.99219 27.9424 7.45215 27.9424 7.8916V12.0137C27.9424 12.4531 27.9688 12.7988 28.0215 13.0508C28.0801 13.2969 28.2031 13.6133 28.3906 14H25.0332C24.8984 13.7598 24.8105 13.5781 24.7695 13.4551C24.7285 13.3262 24.6875 13.127 24.6465 12.8574C24.1777 13.3086 23.7119 13.6309 23.249 13.8242C22.6162 14.082 21.8809 14.2109 21.043 14.2109C19.9297 14.2109 19.083 13.9531 18.5029 13.4375C17.9287 12.9219 17.6416 12.2861 17.6416 11.5303C17.6416 10.8213 17.8496 10.2383 18.2656 9.78125C18.6816 9.32422 19.4492 8.98438 20.5684 8.76172C21.9102 8.49219 22.7803 8.30469 23.1787 8.19922C23.5771 8.08789 23.999 7.94434 24.4443 7.76855C24.4443 7.3291 24.3535 7.02148 24.1719 6.8457C23.9902 6.66992 23.6709 6.58203 23.2139 6.58203C22.6279 6.58203 22.1885 6.67578 21.8955 6.86328C21.667 7.00977 21.4824 7.28516 21.3418 7.68945ZM24.4443 9.57031C23.9521 9.74609 23.4395 9.90137 22.9062 10.0361C22.1797 10.2295 21.7197 10.4199 21.5264 10.6074C21.3271 10.8008 21.2275 11.0205 21.2275 11.2666C21.2275 11.5479 21.3242 11.7793 21.5176 11.9609C21.7168 12.1367 22.0068 12.2246 22.3877 12.2246C22.7861 12.2246 23.1553 12.1279 23.4951 11.9346C23.8408 11.7412 24.084 11.5068 24.2246 11.2314C24.3711 10.9502 24.4443 10.5869 24.4443 10.1416V9.57031ZM39.9219 14H36.582V12.4883C36.084 13.1094 35.5801 13.5518 35.0703 13.8154C34.5664 14.0791 33.9453 14.2109 33.207 14.2109C32.2227 14.2109 31.4492 13.918 30.8867 13.332C30.3301 12.7402 30.0518 11.832 30.0518 10.6074V4.66602H33.6465V9.79883C33.6465 10.3848 33.7549 10.8008 33.9717 11.0469C34.1885 11.293 34.4932 11.416 34.8857 11.416C35.3135 11.416 35.6621 11.252 35.9316 10.9238C36.207 10.5957 36.3447 10.0068 36.3447 9.15723V4.66602H39.9219V14ZM42.1191 4.66602H45.459V6.02832C45.9395 5.45996 46.4229 5.05566 46.9092 4.81543C47.4014 4.5752 47.9932 4.45508 48.6846 4.45508C49.4287 4.45508 50.0176 4.58691 50.4512 4.85059C50.8848 5.11426 51.2393 5.50684 51.5146 6.02832C52.0771 5.41895 52.5898 5.00586 53.0527 4.78906C53.5156 4.56641 54.0869 4.45508 54.7666 4.45508C55.7686 4.45508 56.5508 4.75391 57.1133 5.35156C57.6758 5.94336 57.957 6.87207 57.957 8.1377V14H54.3711V8.68262C54.3711 8.26074 54.2891 7.94727 54.125 7.74219C53.8848 7.41992 53.5859 7.25879 53.2285 7.25879C52.8066 7.25879 52.4668 7.41113 52.209 7.71582C51.9512 8.02051 51.8223 8.50977 51.8223 9.18359V14H48.2363V8.8584C48.2363 8.44824 48.2129 8.16992 48.166 8.02344C48.0898 7.78906 47.958 7.60156 47.7705 7.46094C47.583 7.31445 47.3633 7.24121 47.1113 7.24121C46.7012 7.24121 46.3643 7.39648 46.1006 7.70703C45.8369 8.01758 45.7051 8.52734 45.7051 9.23633V14H42.1191V4.66602ZM66.2979 1.11523H71.5361L73.5576 8.95508L75.5703 1.11523H80.791V14H77.5391V4.17383L75.0166 14H72.0723L69.5586 4.17383V14H66.2979V1.11523ZM91.918 8.73535L95.4072 9.79004C95.1729 10.7686 94.8037 11.5859 94.2998 12.2422C93.7959 12.8984 93.1689 13.3936 92.4189 13.7275C91.6748 14.0615 90.7256 14.2285 89.5713 14.2285C88.1709 14.2285 87.0254 14.0264 86.1348 13.6221C85.25 13.2119 84.4854 12.4941 83.8408 11.4688C83.1963 10.4434 82.874 9.13086 82.874 7.53125C82.874 5.39844 83.4395 3.76074 84.5703 2.61816C85.707 1.46973 87.3125 0.895508 89.3867 0.895508C91.0098 0.895508 92.2842 1.22363 93.21 1.87988C94.1416 2.53613 94.833 3.54395 95.2842 4.90332L91.7686 5.68555C91.6455 5.29297 91.5166 5.00586 91.3818 4.82422C91.1592 4.51953 90.8867 4.28516 90.5645 4.12109C90.2422 3.95703 89.8818 3.875 89.4834 3.875C88.5811 3.875 87.8896 4.23828 87.4092 4.96484C87.0459 5.50391 86.8643 6.35059 86.8643 7.50488C86.8643 8.93457 87.0811 9.91602 87.5146 10.4492C87.9482 10.9766 88.5576 11.2402 89.3428 11.2402C90.1045 11.2402 90.6787 11.0264 91.0654 10.5986C91.458 10.1709 91.7422 9.5498 91.918 8.73535ZM105.928 8.73535L109.417 9.79004C109.183 10.7686 108.813 11.5859 108.31 12.2422C107.806 12.8984 107.179 13.3936 106.429 13.7275C105.685 14.0615 104.735 14.2285 103.581 14.2285C102.181 14.2285 101.035 14.0264 100.145 13.6221C99.2598 13.2119 98.4951 12.4941 97.8506 11.4688C97.2061 10.4434 96.8838 9.13086 96.8838 7.53125C96.8838 5.39844 97.4492 3.76074 98.5801 2.61816C99.7168 1.46973 101.322 0.895508 103.396 0.895508C105.02 0.895508 106.294 1.22363 107.22 1.87988C108.151 2.53613 108.843 3.54395 109.294 4.90332L105.778 5.68555C105.655 5.29297 105.526 5.00586 105.392 4.82422C105.169 4.51953 104.896 4.28516 104.574 4.12109C104.252 3.95703 103.892 3.875 103.493 3.875C102.591 3.875 101.899 4.23828 101.419 4.96484C101.056 5.50391 100.874 6.35059 100.874 7.50488C100.874 8.93457 101.091 9.91602 101.524 10.4492C101.958 10.9766 102.567 11.2402 103.353 11.2402C104.114 11.2402 104.688 11.0264 105.075 10.5986C105.468 10.1709 105.752 9.5498 105.928 8.73535Z" fill="white"/>
</svg>
