<svg width="196" height="25" viewBox="0 0 196 25" fill="none" xmlns="http://www.w3.org/2000/svg">
<path d="M0.96875 7.40625H6.90625V9.82812C7.76042 8.81771 8.61979 8.09896 9.48438 7.67188C10.3594 7.24479 11.4115 7.03125 12.6406 7.03125C13.9635 7.03125 15.0104 7.26562 15.7812 7.73438C16.5521 8.20312 17.1823 8.90104 17.6719 9.82812C18.6719 8.74479 19.5833 8.01042 20.4062 7.625C21.2292 7.22917 22.2448 7.03125 23.4531 7.03125C25.2344 7.03125 26.625 7.5625 27.625 8.625C28.625 9.67708 29.125 11.3281 29.125 13.5781V24H22.75V14.5469C22.75 13.7969 22.6042 13.2396 22.3125 12.875C21.8854 12.3021 21.3542 12.0156 20.7188 12.0156C19.9688 12.0156 19.3646 12.2865 18.9062 12.8281C18.4479 13.3698 18.2188 14.2396 18.2188 15.4375V24H11.8438V14.8594C11.8438 14.1302 11.8021 13.6354 11.7188 13.375C11.5833 12.9583 11.349 12.625 11.0156 12.375C10.6823 12.1146 10.2917 11.9844 9.84375 11.9844C9.11458 11.9844 8.51562 12.2604 8.04688 12.8125C7.57812 13.3646 7.34375 14.2708 7.34375 15.5312V24H0.96875V7.40625ZM38.7188 12.7812L32.6406 12.1406C32.8698 11.0781 33.1979 10.2448 33.625 9.64062C34.0625 9.02604 34.6875 8.49479 35.5 8.04688C36.0833 7.72396 36.8854 7.47396 37.9062 7.29688C38.9271 7.11979 40.0312 7.03125 41.2188 7.03125C43.125 7.03125 44.6562 7.14062 45.8125 7.35938C46.9688 7.56771 47.9323 8.01042 48.7031 8.6875C49.2448 9.15625 49.6719 9.82292 49.9844 10.6875C50.2969 11.5417 50.4531 12.3594 50.4531 13.1406V20.4688C50.4531 21.25 50.5 21.8646 50.5938 22.3125C50.6979 22.75 50.9167 23.3125 51.25 24H45.2812C45.0417 23.5729 44.8854 23.25 44.8125 23.0312C44.7396 22.8021 44.6667 22.4479 44.5938 21.9688C43.7604 22.7708 42.9323 23.3438 42.1094 23.6875C40.9844 24.1458 39.6771 24.375 38.1875 24.375C36.2083 24.375 34.7031 23.9167 33.6719 23C32.651 22.0833 32.1406 20.9531 32.1406 19.6094C32.1406 18.349 32.5104 17.3125 33.25 16.5C33.9896 15.6875 35.3542 15.0833 37.3438 14.6875C39.7292 14.2083 41.276 13.875 41.9844 13.6875C42.6927 13.4896 43.4427 13.2344 44.2344 12.9219C44.2344 12.1406 44.0729 11.5938 43.75 11.2812C43.4271 10.9688 42.8594 10.8125 42.0469 10.8125C41.0052 10.8125 40.224 10.9792 39.7031 11.3125C39.2969 11.5729 38.9688 12.0625 38.7188 12.7812ZM44.2344 16.125C43.3594 16.4375 42.4479 16.7135 41.5 16.9531C40.2083 17.2969 39.3906 17.6354 39.0469 17.9688C38.6927 18.3125 38.5156 18.7031 38.5156 19.1406C38.5156 19.6406 38.6875 20.0521 39.0312 20.375C39.3854 20.6875 39.901 20.8438 40.5781 20.8438C41.2865 20.8438 41.9427 20.6719 42.5469 20.3281C43.1615 19.9844 43.5938 19.5677 43.8438 19.0781C44.1042 18.5781 44.2344 17.9323 44.2344 17.1406V16.125ZM71.75 24H65.8125V21.3125C64.9271 22.4167 64.0312 23.2031 63.125 23.6719C62.2292 24.1406 61.125 24.375 59.8125 24.375C58.0625 24.375 56.6875 23.8542 55.6875 22.8125C54.6979 21.7604 54.2031 20.1458 54.2031 17.9688V7.40625H60.5938V16.5312C60.5938 17.5729 60.7865 18.3125 61.1719 18.75C61.5573 19.1875 62.099 19.4062 62.7969 19.4062C63.5573 19.4062 64.1771 19.1146 64.6562 18.5312C65.1458 17.9479 65.3906 16.901 65.3906 15.3906V7.40625H71.75V24ZM75.6562 7.40625H81.5938V9.82812C82.4479 8.81771 83.3073 8.09896 84.1719 7.67188C85.0469 7.24479 86.099 7.03125 87.3281 7.03125C88.651 7.03125 89.6979 7.26562 90.4688 7.73438C91.2396 8.20312 91.8698 8.90104 92.3594 9.82812C93.3594 8.74479 94.2708 8.01042 95.0938 7.625C95.9167 7.22917 96.9323 7.03125 98.1406 7.03125C99.9219 7.03125 101.312 7.5625 102.312 8.625C103.312 9.67708 103.812 11.3281 103.812 13.5781V24H97.4375V14.5469C97.4375 13.7969 97.2917 13.2396 97 12.875C96.5729 12.3021 96.0417 12.0156 95.4062 12.0156C94.6562 12.0156 94.0521 12.2865 93.5938 12.8281C93.1354 13.3698 92.9062 14.2396 92.9062 15.4375V24H86.5312V14.8594C86.5312 14.1302 86.4896 13.6354 86.4062 13.375C86.2708 12.9583 86.0365 12.625 85.7031 12.375C85.3698 12.1146 84.9792 11.9844 84.5312 11.9844C83.8021 11.9844 83.2031 12.2604 82.7344 12.8125C82.2656 13.3646 82.0312 14.2708 82.0312 15.5312V24H75.6562V7.40625ZM118.641 1.09375H127.953L131.547 15.0312L135.125 1.09375H144.406V24H138.625V6.53125L134.141 24H128.906L124.438 6.53125V24H118.641V1.09375ZM164.188 14.6406L170.391 16.5156C169.974 18.2552 169.318 19.7083 168.422 20.875C167.526 22.0417 166.411 22.9219 165.078 23.5156C163.755 24.1094 162.068 24.4062 160.016 24.4062C157.526 24.4062 155.49 24.0469 153.906 23.3281C152.333 22.599 150.974 21.3229 149.828 19.5C148.682 17.6771 148.109 15.3438 148.109 12.5C148.109 8.70833 149.115 5.79688 151.125 3.76562C153.146 1.72396 156 0.703125 159.688 0.703125C162.573 0.703125 164.839 1.28646 166.484 2.45312C168.141 3.61979 169.37 5.41146 170.172 7.82812L163.922 9.21875C163.703 8.52083 163.474 8.01042 163.234 7.6875C162.839 7.14583 162.354 6.72917 161.781 6.4375C161.208 6.14583 160.568 6 159.859 6C158.255 6 157.026 6.64583 156.172 7.9375C155.526 8.89583 155.203 10.401 155.203 12.4531C155.203 14.9948 155.589 16.7396 156.359 17.6875C157.13 18.625 158.214 19.0938 159.609 19.0938C160.964 19.0938 161.984 18.7135 162.672 17.9531C163.37 17.1927 163.875 16.0885 164.188 14.6406ZM189.094 14.6406L195.297 16.5156C194.88 18.2552 194.224 19.7083 193.328 20.875C192.432 22.0417 191.318 22.9219 189.984 23.5156C188.661 24.1094 186.974 24.4062 184.922 24.4062C182.432 24.4062 180.396 24.0469 178.812 23.3281C177.24 22.599 175.88 21.3229 174.734 19.5C173.589 17.6771 173.016 15.3438 173.016 12.5C173.016 8.70833 174.021 5.79688 176.031 3.76562C178.052 1.72396 180.906 0.703125 184.594 0.703125C187.479 0.703125 189.745 1.28646 191.391 2.45312C193.047 3.61979 194.276 5.41146 195.078 7.82812L188.828 9.21875C188.609 8.52083 188.38 8.01042 188.141 7.6875C187.745 7.14583 187.26 6.72917 186.688 6.4375C186.115 6.14583 185.474 6 184.766 6C183.161 6 181.932 6.64583 181.078 7.9375C180.432 8.89583 180.109 10.401 180.109 12.4531C180.109 14.9948 180.495 16.7396 181.266 17.6875C182.036 18.625 183.12 19.0938 184.516 19.0938C185.87 19.0938 186.891 18.7135 187.578 17.9531C188.276 17.1927 188.781 16.0885 189.094 14.6406Z" fill="black"/>
</svg>
