<svg width="80" height="50" viewBox="0 0 80 50" fill="none" xmlns="http://www.w3.org/2000/svg">
<path d="M9.99935 1.66602C8.35118 1.66602 6.74001 2.15477 5.3696 3.07044C3.99919 3.98612 2.93109 5.28761 2.30036 6.81033C1.66963 8.33305 1.5046 10.0086 1.82614 11.6251C2.14769 13.2416 2.94136 14.7265 4.1068 15.8919C5.27223 17.0573 6.75709 17.851 8.3736 18.1725C9.99011 18.4941 11.6657 18.3291 13.1884 17.6983C14.7111 17.0676 16.0126 15.9995 16.9283 14.6291C17.844 13.2587 18.3327 11.6475 18.3327 9.99936C18.3327 8.90501 18.1171 7.82138 17.6984 6.81033C17.2796 5.79928 16.6657 4.88062 15.8919 4.1068C15.1181 3.33298 14.1994 2.71915 13.1884 2.30036C12.1773 1.88157 11.0937 1.66602 9.99935 1.66602ZM9.99935 16.666C8.68081 16.666 7.39188 16.275 6.29555 15.5425C5.19922 14.8099 4.34474 13.7687 3.84016 12.5506C3.33557 11.3324 3.20355 9.99196 3.46078 8.69876C3.71802 7.40555 4.35296 6.21766 5.28531 5.28531C6.21766 4.35296 7.40554 3.71802 8.69875 3.46079C9.99196 3.20355 11.3324 3.33558 12.5506 3.84016C13.7688 4.34474 14.8099 5.19923 15.5425 6.29556C16.275 7.39188 16.666 8.68082 16.666 9.99936C16.666 11.7674 15.9637 13.4631 14.7134 14.7134C13.4632 15.9636 11.7675 16.666 9.99935 16.666Z" fill="#858D94"/>
<path d="M39.9994 1.66602C38.3512 1.66602 36.74 2.15477 35.3696 3.07044C33.9992 3.98612 32.9311 5.28761 32.3004 6.81033C31.6696 8.33305 31.5046 10.0086 31.8262 11.6251C32.1477 13.2416 32.9414 14.7265 34.1068 15.8919C35.2722 17.0573 36.7571 17.851 38.3736 18.1725C39.9901 18.4941 41.6657 18.3291 43.1884 17.6983C44.7111 17.0676 46.0126 15.9995 46.9283 14.6291C47.844 13.2587 48.3327 11.6475 48.3327 9.99936C48.3327 8.90501 48.1171 7.82138 47.6984 6.81033C47.2796 5.79928 46.6657 4.88062 45.8919 4.1068C45.1181 3.33298 44.1994 2.71915 43.1884 2.30036C42.1773 1.88157 41.0937 1.66602 39.9994 1.66602ZM39.9994 16.666C38.6808 16.666 37.3919 16.275 36.2956 15.5425C35.1992 14.8099 34.3448 13.7687 33.8402 12.5506C33.3356 11.3324 33.2036 9.99196 33.4608 8.69876C33.718 7.40555 34.353 6.21766 35.2853 5.28531C36.2177 4.35296 37.4056 3.71802 38.6988 3.46079C39.992 3.20355 41.3324 3.33558 42.5506 3.84016C43.7688 4.34474 44.8099 5.19923 45.5425 6.29556C46.275 7.39188 46.666 8.68082 46.666 9.99936C46.666 11.7674 45.9637 13.4631 44.7134 14.7134C43.4632 15.9636 41.7675 16.666 39.9994 16.666Z" fill="#991F7B"/>
<path d="M69.9994 1.66602C68.3512 1.66602 66.74 2.15477 65.3696 3.07044C63.9992 3.98612 62.9311 5.28761 62.3004 6.81033C61.6696 8.33305 61.5046 10.0086 61.8262 11.6251C62.1477 13.2416 62.9414 14.7265 64.1068 15.8919C65.2722 17.0573 66.7571 17.851 68.3736 18.1725C69.9901 18.4941 71.6657 18.3291 73.1884 17.6983C74.7111 17.0676 76.0126 15.9995 76.9283 14.6291C77.844 13.2587 78.3327 11.6475 78.3327 9.99936C78.3327 8.90501 78.1171 7.82138 77.6984 6.81033C77.2796 5.79928 76.6657 4.88062 75.8919 4.1068C75.1181 3.33298 74.1994 2.71915 73.1884 2.30036C72.1773 1.88157 71.0937 1.66602 69.9994 1.66602ZM69.9994 16.666C68.6808 16.666 67.3919 16.275 66.2956 15.5425C65.1992 14.8099 64.3448 13.7687 63.8402 12.5506C63.3356 11.3324 63.2036 9.99196 63.4608 8.69876C63.718 7.40555 64.353 6.21766 65.2853 5.28531C66.2177 4.35296 67.4056 3.71802 68.6988 3.46079C69.992 3.20355 71.3324 3.33558 72.5506 3.84016C73.7688 4.34474 74.8099 5.19923 75.5425 6.29556C76.275 7.39188 76.666 8.68082 76.666 9.99936C76.666 11.7674 75.9637 13.4631 74.7134 14.7134C73.4632 15.9636 71.7675 16.666 69.9994 16.666Z" fill="#991F7B"/>
<path d="M70.0007 11.6673C70.9211 11.6673 71.6673 10.9211 71.6673 10.0007C71.6673 9.08017 70.9211 8.33398 70.0007 8.33398C69.0802 8.33398 68.334 9.08017 68.334 10.0007C68.334 10.9211 69.0802 11.6673 70.0007 11.6673Z" fill="#991F7B"/>
<path d="M9.99935 31.666C8.35118 31.666 6.74001 32.1547 5.3696 33.0704C3.99919 33.9861 2.93109 35.2876 2.30036 36.8103C1.66963 38.333 1.5046 40.0086 1.82614 41.6251C2.14769 43.2416 2.94136 44.7265 4.1068 45.8919C5.27223 47.0573 6.75709 47.851 8.3736 48.1725C9.99011 48.4941 11.6657 48.3291 13.1884 47.6983C14.7111 47.0676 16.0126 45.9995 16.9283 44.6291C17.844 43.2587 18.3327 41.6475 18.3327 39.9993C18.3327 38.905 18.1171 37.8214 17.6984 36.8103C17.2796 35.7993 16.6657 34.8806 15.8919 34.1068C15.1181 33.333 14.1994 32.7191 13.1884 32.3003C12.1773 31.8816 11.0937 31.666 9.99935 31.666ZM9.99935 46.666C8.68081 46.666 7.39188 46.275 6.29555 45.5425C5.19922 44.8099 4.34474 43.7687 3.84016 42.5506C3.33557 41.3324 3.20355 39.9919 3.46078 38.6987C3.71802 37.4055 4.35296 36.2176 5.28531 35.2853C6.21766 34.3529 7.40554 33.718 8.69875 33.4608C9.99196 33.2035 11.3324 33.3356 12.5506 33.8401C13.7688 34.3447 14.8099 35.1992 15.5425 36.2955C16.275 37.3919 16.666 38.6808 16.666 39.9993C16.666 41.7674 15.9637 43.4631 14.7134 44.7134C13.4632 45.9636 11.7675 46.666 9.99935 46.666Z" fill="#B8C3CC"/>
<path d="M69.9994 31.666C68.3512 31.666 66.74 32.1547 65.3696 33.0704C63.9992 33.9861 62.9311 35.2876 62.3004 36.8103C61.6696 38.333 61.5046 40.0086 61.8262 41.6251C62.1477 43.2416 62.9414 44.7265 64.1068 45.8919C65.2722 47.0573 66.7571 47.851 68.3736 48.1725C69.9901 48.4941 71.6657 48.3291 73.1884 47.6983C74.7111 47.0676 76.0126 45.9995 76.9283 44.6291C77.844 43.2587 78.3327 41.6475 78.3327 39.9993C78.3327 38.905 78.1171 37.8214 77.6984 36.8103C77.2796 35.7993 76.6657 34.8806 75.8919 34.1068C75.1181 33.333 74.1994 32.7191 73.1884 32.3003C72.1773 31.8816 71.0937 31.666 69.9994 31.666ZM69.9994 46.666C68.6808 46.666 67.3919 46.275 66.2956 45.5425C65.1992 44.8099 64.3448 43.7687 63.8402 42.5506C63.3356 41.3324 63.2036 39.9919 63.4608 38.6987C63.718 37.4055 64.353 36.2176 65.2853 35.2853C66.2177 34.3529 67.4056 33.718 68.6988 33.4608C69.992 33.2035 71.3324 33.3356 72.5506 33.8401C73.7688 34.3447 74.8099 35.1992 75.5425 36.2955C76.275 37.3919 76.666 38.6808 76.666 39.9993C76.666 41.7674 75.9637 43.4631 74.7134 44.7134C73.4632 45.9636 71.7675 46.666 69.9994 46.666Z" fill="#B8C3CC"/>
<path d="M70.0007 41.6673C70.9211 41.6673 71.6673 40.9211 71.6673 40.0007C71.6673 39.0802 70.9211 38.334 70.0007 38.334C69.0802 38.334 68.334 39.0802 68.334 40.0007C68.334 40.9211 69.0802 41.6673 70.0007 41.6673Z" fill="#B8C3CC"/>
</svg>
