<svg width="100" height="38" viewBox="0 0 100 38" fill="none" xmlns="http://www.w3.org/2000/svg">
<path d="M0 25.2291L10.9124 20.8038C10.9124 20.8038 24.1409 26.312 26.7549 27.2412C29.3689 28.1705 30.8136 28.3316 32.8392 27.4886C34.7026 26.7167 35.4155 26.2932 35.8078 25.8773C36.2 25.4614 36.0982 24.7194 34.5856 24.0487C33.073 23.378 19.1241 17.4614 19.1241 17.4614L30.0328 13.0173C30.0328 13.0173 41.1263 17.6787 44.2232 18.9565C47.32 20.2342 49.3531 20.86 53.2081 19.245C57.0631 17.63 98.0951 0 98.0951 0L100 3.62715C100 3.62715 53.0534 28.5452 48.874 30.6511C44.6946 32.7569 37.1581 36.875 34.9176 37.6244C32.677 38.3738 30.4741 37.9579 27.5169 36.7663C24.5596 35.5748 0 25.2291 0 25.2291Z" fill="black"/>
</svg>
