<svg width="22" height="22" viewBox="0 0 22 22" fill="none" xmlns="http://www.w3.org/2000/svg">
<path d="M19.25 10.0833H8.62587L10.7342 7.98417C10.8197 7.8987 10.8875 7.79723 10.9337 7.68556C10.98 7.57389 11.0038 7.4542 11.0038 7.33333C11.0038 7.21246 10.98 7.09278 10.9337 6.9811C10.8875 6.86943 10.8197 6.76797 10.7342 6.6825C10.6487 6.59703 10.5473 6.52923 10.4356 6.48298C10.3239 6.43672 10.2042 6.41292 10.0834 6.41292C9.9625 6.41292 9.84282 6.43672 9.73115 6.48298C9.61948 6.52923 9.51801 6.59703 9.43254 6.6825L5.76587 10.3492C5.68242 10.4363 5.617 10.5391 5.57337 10.6517C5.48169 10.8748 5.48169 11.1252 5.57337 11.3483C5.617 11.4609 5.68242 11.5637 5.76587 11.6508L9.43254 15.3175C9.51776 15.4034 9.61914 15.4716 9.73085 15.5182C9.84255 15.5647 9.96236 15.5886 10.0834 15.5886C10.2044 15.5886 10.3242 15.5647 10.4359 15.5182C10.5476 15.4716 10.649 15.4034 10.7342 15.3175C10.8201 15.2323 10.8883 15.1309 10.9349 15.0192C10.9814 14.9075 11.0054 14.7877 11.0054 14.6667C11.0054 14.5457 10.9814 14.4258 10.9349 14.3141C10.8883 14.2024 10.8201 14.101 10.7342 14.0158L8.62587 11.9167H19.25C19.4932 11.9167 19.7263 11.8201 19.8982 11.6482C20.0701 11.4763 20.1667 11.2431 20.1667 11C20.1667 10.7569 20.0701 10.5237 19.8982 10.3518C19.7263 10.1799 19.4932 10.0833 19.25 10.0833ZM2.75004 2.75C2.50693 2.75 2.27377 2.84658 2.10186 3.01849C1.92995 3.19039 1.83337 3.42355 1.83337 3.66667V18.3333C1.83337 18.5764 1.92995 18.8096 2.10186 18.9815C2.27377 19.1534 2.50693 19.25 2.75004 19.25C2.99316 19.25 3.22631 19.1534 3.39822 18.9815C3.57013 18.8096 3.66671 18.5764 3.66671 18.3333V3.66667C3.66671 3.42355 3.57013 3.19039 3.39822 3.01849C3.22631 2.84658 2.99316 2.75 2.75004 2.75Z" fill="white"/>
</svg>
