<svg width="52" height="52" viewBox="0 0 52 52" fill="none" xmlns="http://www.w3.org/2000/svg">
<g clip-path="url(#clip0_62_2871)">
<path d="M6.51807 13.6559L6.51807 31.1677C6.51807 34.5503 9.2364 37.2925 12.5896 37.2925H39.4107C42.764 37.2925 45.4823 34.5503 45.4823 31.1677V13.6559C45.4823 10.2733 42.764 7.53109 39.4107 7.53109L12.5896 7.53109C9.2364 7.53109 6.51807 10.2733 6.51807 13.6559Z" stroke="#484E66" stroke-width="2" stroke-linecap="round" stroke-linejoin="round"/>
<path d="M15.5796 44.4688H36.4202" stroke="#484E66" stroke-width="2" stroke-linecap="round" stroke-linejoin="round"/>
<path d="M33.0205 44.4687C31.5431 44.4687 30.3389 43.2489 30.3389 41.7636V37.4609" stroke="#484E66" stroke-width="2" stroke-linecap="round" stroke-linejoin="round"/>
<path d="M18.98 44.4687C20.4574 44.4687 21.6616 43.2489 21.6616 41.7636V37.4609" stroke="#484E66" stroke-width="2" stroke-linecap="round" stroke-linejoin="round"/>
<path d="M6.51807 31.1677C6.51807 34.5364 9.25027 37.2925 12.5896 37.2925H39.4107C42.7501 37.2925 45.4823 34.5364 45.4823 31.1677V29.5957H6.51807V31.1677Z" fill="#0092D7" fill-opacity="0.2" stroke="#484E66" stroke-width="2" stroke-linecap="round" stroke-linejoin="round"/>
<circle cx="19.25" cy="19.1318" r="1.25" fill="#484E66"/>
<circle cx="25.75" cy="19.1318" r="1.25" fill="#484E66"/>
<circle cx="32.25" cy="19.1318" r="1.25" fill="#484E66"/>
</g>
<defs>
<clipPath id="clip0_62_2871">
<rect width="42" height="40" fill="white" transform="translate(5 6)"/>
</clipPath>
</defs>
</svg>
